<svg version="1.2" xmlns="http://www.w3.org/2000/svg" viewBox="0 0 115 115" width="115" height="115">
	<title>13512</title>
	<style>
		.s0 { opacity: .1;fill: #000000 } 
		.s1 { fill: #ffffff } 
		.s2 { fill: #1e4fad } 
	</style>
	<g id="Facebook">
		<path id="&lt;Path&gt;" class="s0" d="m75.6 114.8h-44.5c-17.2 0-31.3-14.1-31.3-31.3v-44.5c0-17.2 14.1-31.3 31.3-31.3h44.5c17.2 0 31.3 14.1 31.3 31.3v44.5c0 17.2-14.1 31.3-31.3 31.3z"/>
		<path id="&lt;Path&gt;" class="s1" d="m83.7 106.7h-44.5c-17.2 0-31.3-14.1-31.3-31.3v-44.5c0-17.2 14.1-31.3 31.3-31.3h44.5c17.3 0 31.3 14.1 31.3 31.3v44.5c0 17.2-14 31.3-31.3 31.3z"/>
		<path id="&lt;Compound Path&gt;" fill-rule="evenodd" class="s2" d="m115 30.9v44.5c0 17.2-14 31.3-31.3 31.3h-44.5c-17.2 0-31.3-14.1-31.3-31.3v-44.5c0-17.2 14.1-31.3 31.3-31.3h44.5c17.3 0 31.3 14.1 31.3 31.3zm-75.8-26.6c-14.6 0-26.5 11.9-26.5 26.6v44.5c0 14.6 11.9 26.6 26.5 26.6h44.5c14.7 0 26.6-12 26.6-26.6v-44.5c0-14.7-11.9-26.6-26.6-26.6z"/>
		<path id="&lt;Path&gt;" class="s2" d="m68 35.2c1.6 0 3.3 0 5 0 0.2 0 0.4 0 0.7 0v-8.7c-0.9-0.1-1.8-0.2-2.8-0.3-1.7-0.1-3.4-0.2-5.1-0.1-2.7 0-5.2 0.7-7.3 2.2-2.5 1.8-3.9 4.3-4.4 7.3-0.2 1.2-0.3 2.5-0.3 3.8-0.1 1.9 0 3.9 0 5.8v0.8h-8.4v9.7h8.3v24.5h10.2v-24.5h8.2c0.5-3.2 0.9-6.4 1.3-9.7-0.7 0-1.3 0-1.8 0-2.4 0-7.8 0-7.8 0 0 0 0-4.9 0.1-7 0.1-2.8 1.8-3.7 4.1-3.8z"/>
	</g>
</svg>