<svg version="1.2" xmlns="http://www.w3.org/2000/svg" viewBox="0 0 115 115" width="115" height="115">
	<title>13512</title>
	<defs>
		<linearGradient id="g1" x2="1" gradientUnits="userSpaceOnUse" gradientTransform="matrix(-177.351,177.351,-177.351,-177.351,180.622,43.271)">
			<stop offset=".011" stop-color="#3542e0"/>
			<stop offset=".624" stop-color="#c82091"/>
			<stop offset=".761" stop-color="#f62b37"/>
			<stop offset="1" stop-color="#ffc658"/>
		</linearGradient>
		<linearGradient id="g2" x2="1" gradientUnits="userSpaceOnUse" gradientTransform="matrix(-63.812,81.28,-81.32,-63.844,125.918,46.978)">
			<stop offset=".011" stop-color="#3542e0"/>
			<stop offset=".624" stop-color="#c82091"/>
			<stop offset=".761" stop-color="#f62b37"/>
			<stop offset="1" stop-color="#ffc658"/>
		</linearGradient>
		<linearGradient id="g3" x2="1" gradientUnits="userSpaceOnUse" gradientTransform="matrix(-63.812,81.28,-81.32,-63.844,125.918,46.978)">
			<stop offset=".011" stop-color="#3542e0"/>
			<stop offset=".624" stop-color="#c82091"/>
			<stop offset=".761" stop-color="#f62b37"/>
			<stop offset="1" stop-color="#ffc658"/>
		</linearGradient>
	</defs>
	<style>
		.s0 { opacity: .1;fill: #000000 } 
		.s1 { fill: #ffffff } 
		.s2 { fill: url(#g1) } 
		.s3 { fill: url(#g2) } 
		.s4 { fill: url(#g3) } 
	</style>
	<g id="Instagram">
		<g id="Folder 3">
			<path id="&lt;Path&gt;" class="s0" d="m76.8 115.8h-44.5c-17.3 0-31.3-14.1-31.3-31.3v-44.5c0-17.2 14-31.3 31.3-31.3h44.5c17.2 0 31.3 14.1 31.3 31.3v44.5c0 17.2-14.1 31.3-31.3 31.3z"/>
			<path id="&lt;Path&gt;" class="s1" d="m84.9 107.7h-44.5c-17.2 0-31.3-14.1-31.3-31.3v-44.5c0-17.2 14.1-31.3 31.3-31.3h44.5c17.2 0 31.3 14.1 31.3 31.3v44.5c0 17.2-14.1 31.3-31.3 31.3z"/>
			<path id="&lt;Compound Path&gt;" fill-rule="evenodd" class="s2" d="m116.2 31.9v44.5c0 17.2-14.1 31.3-31.3 31.3h-44.5c-17.2 0-31.3-14.1-31.3-31.3v-44.5c0-17.2 14.1-31.3 31.3-31.3h44.5c17.2 0 31.3 14.1 31.3 31.3zm-75.8-26.6c-14.7 0-26.6 11.9-26.6 26.6v44.5c0 14.6 11.9 26.6 26.6 26.6h44.5c14.6 0 26.6-12 26.6-26.6v-44.5c0-14.7-12-26.6-26.6-26.6z"/>
			<path id="&lt;Compound Path&gt;" fill-rule="evenodd" class="s3" d="m94 72.8c-1.9 7.4-6.7 11.7-14.2 12.9-5.6 0.9-30.7 1.1-35.7-0.2-7.4-1.9-11.8-6.7-13-14.1-0.9-5.4-1.2-30.8 0.3-36.3 2-7.1 6.7-11.4 14-12.5 6.3-1.1 24.4-0.8 32-0.4 4.4 0.2 8.5 1.6 11.8 4.8 3.2 3 4.8 6.8 5.2 11 0.6 5.1 1.1 29.2-0.4 34.8zm-5.4-34.2c-0.6-5.7-4.1-9.4-9.7-10.3-5.5-0.8-26.1-0.8-31.8-0.1-5.7 0.6-9.4 4.1-10.3 9.7-0.9 5.9-0.7 28.2 0 32.6 0.8 4.7 3.4 7.8 8.1 9.1 4.8 1.4 28.1 1.1 33.3 0.5 5.7-0.6 9.4-4.1 10.3-9.8 0.9-5.7 0.7-26.4 0.1-31.7zm-9.4 15.6c0 9.1-7.4 16.5-16.6 16.5-9.1 0-16.5-7.4-16.5-16.6 0-9.1 7.4-16.5 16.5-16.5 9.2 0 16.6 7.4 16.6 16.6zm-5.9 0c0.1-5.9-4.7-10.7-10.6-10.8-5.9 0-10.7 4.7-10.8 10.6 0 6 4.7 10.8 10.6 10.8 6 0.1 10.8-4.7 10.8-10.6zm10.4-17.3c0 2.2-1.7 3.9-3.8 3.9-2.2 0-3.9-1.7-3.9-3.9 0-2.1 1.7-3.9 3.9-3.9 2.1 0.1 3.9 1.8 3.8 3.9z"/>
			<path id="&lt;Compound Path&gt;" fill-rule="evenodd" class="s4" d="m94 72.8c-1.9 7.4-6.7 11.7-14.2 12.9-5.6 0.9-30.7 1.1-35.7-0.2-7.4-1.9-11.8-6.7-13-14.1-0.9-5.4-1.2-30.8 0.3-36.3 2-7.1 6.7-11.4 14-12.5 6.3-1.1 24.4-0.8 32-0.4 4.4 0.2 8.5 1.6 11.8 4.8 3.2 3 4.8 6.8 5.2 11 0.6 5.1 1.1 29.2-0.4 34.8zm-5.4-34.2c-0.6-5.7-4.1-9.4-9.7-10.3-5.5-0.8-26.1-0.8-31.8-0.1-5.7 0.6-9.4 4.1-10.3 9.7-0.9 5.9-0.7 28.2 0 32.6 0.8 4.7 3.4 7.8 8.1 9.1 4.8 1.4 28.1 1.1 33.3 0.5 5.7-0.6 9.4-4.1 10.3-9.8 0.9-5.7 0.7-26.4 0.1-31.7zm-9.4 15.6c0 9.1-7.4 16.5-16.6 16.5-9.1 0-16.5-7.4-16.5-16.6 0-9.1 7.4-16.5 16.5-16.5 9.2 0 16.6 7.4 16.6 16.6zm-5.9 0c0.1-5.9-4.7-10.7-10.6-10.8-5.9 0-10.7 4.7-10.8 10.6 0 6 4.7 10.8 10.6 10.8 6 0.1 10.8-4.7 10.8-10.6zm10.4-17.3c0 2.2-1.7 3.9-3.8 3.9-2.2 0-3.9-1.7-3.9-3.9 0-2.1 1.7-3.9 3.9-3.9 2.1 0.1 3.9 1.8 3.8 3.9z"/>
		</g>
	</g>
</svg>