<svg version="1.2" xmlns="http://www.w3.org/2000/svg" viewBox="0 0 115 115" width="115" height="115">
	<title>13512</title>
	<style>
		.s0 { opacity: .1;fill: #000000 } 
		.s1 { fill: #ffffff } 
		.s2 { fill: #007ab5 } 
	</style>
	<g id="Linkedin">
		<g id="Folder 2">
			<path id="&lt;Path&gt;" class="s0" d="m76.2 115.3h-44.5c-17.2 0-31.3-14.1-31.3-31.4v-44.5c0-17.2 14.1-31.3 31.3-31.3h44.5c17.2 0 31.3 14.1 31.3 31.3v44.5c0 17.3-14.1 31.4-31.3 31.4z"/>
			<path id="&lt;Path&gt;" class="s1" d="m84.3 107.1h-44.5c-17.2 0-31.3-14.1-31.3-31.3v-44.5c0-17.2 14.1-31.3 31.3-31.3h44.5c17.2 0 31.3 14.1 31.3 31.3v44.5c0 17.2-14.1 31.3-31.3 31.3z"/>
			<path id="&lt;Compound Path&gt;" fill-rule="evenodd" class="s2" d="m115.6 31.3v44.5c0 17.2-14.1 31.3-31.3 31.3h-44.5c-17.2 0-31.3-14.1-31.3-31.3v-44.5c0-17.2 14.1-31.3 31.3-31.3h44.5c17.2 0 31.3 14.1 31.3 31.3zm-75.8-26.6c-14.6 0-26.6 12-26.6 26.6v44.5c0 14.7 12 26.6 26.6 26.6h44.5c14.7 0 26.6-11.9 26.6-26.6v-44.5c0-14.6-11.9-26.6-26.6-26.6z"/>
			<path id="&lt;Compound Path&gt;" class="s2" d="m40.9 43.5h9.9v31.6h-9.9zm5-15.7c3.1 0 5.7 2.5 5.7 5.6 0 3.2-2.6 5.7-5.7 5.7-3.2 0-5.7-2.5-5.7-5.7 0-3.1 2.5-5.6 5.7-5.6z"/>
			<path id="&lt;Path&gt;" class="s2" d="m56.9 43.5h9.5v4.3h0.1c1.3-2.5 4.5-5.1 9.3-5.1 9.9 0 11.8 6.5 11.8 15v17.4h-9.9v-15.4c0-3.7 0-8.4-5.1-8.4-5.1 0-5.8 4-5.8 8.1v15.7h-9.9z"/>
		</g>
	</g>
</svg>