<svg version="1.2" xmlns="http://www.w3.org/2000/svg" viewBox="0 0 297 40" width="297" height="40">
	<title>logo-svg</title>
	<style>
		.s0 { fill: #545c76 } 
		.s1 { fill: #d1d3d4 } 
		.s2 { fill: #282828 } 
		.s3 { fill: #0579b5 } 
		.s4 { fill: #0598d2 } 
	</style>
	<g id="Layer">
		<g id="Layer">
			<path id="Layer" fill-rule="evenodd" class="s0" d="m214 6.7l7.4 28.3h-3.6l-4.5-17.3-7.7 18.3-7.7-18.4-4.6 17.4h-3.6l7.4-28.3 8.5 20.2zm11.1 1.2h3.7v27.1h-3.7zm26.8 13.4h11.5q0 2.8-0.4 4.4-0.4 1.7-1.5 3.7-1.2 2-3.1 3.6-2 1.5-4.2 2.2-2.2 0.7-5.3 0.7-7 0-11.2-4.4-4.1-4.4-4.1-10.1 0-6 4.2-10.2 4.3-4.2 10.4-4.2 3.6 0 6.6 1.1 2.9 1.1 6.1 4.1l-2.8 2.7q-4.1-4-9.6-4-4.7 0-7.9 3-3.1 3.1-3.1 7.7 0 4 3 7.2 3.1 3.2 8.5 3.2 8.1 0 10.2-7h-7.3c0 0 0-3.7 0-3.7zm45.1 0q0 6.1-4.4 10.4-4.3 4.2-10.6 4.2-6.2 0-10.5-4.3-4.4-4.2-4.4-10.3 0-5.9 4.4-10.1 4.5-4.2 10.7-4.2 6 0 10.4 4.3 4.4 4.2 4.4 10zm-4 0.1q0-4.4-3.2-7.5-3.2-3.1-7.9-3.1-4.5 0-7.7 3.1-3.2 3.2-3.2 7.5 0 4.5 3.3 7.6 3.3 3 8 3 4.4 0 7.6-3.1 3.1-3.1 3.1-7.5z"/>
		</g>
	</g>
	<g id="Layer">
		<g id="Layer">
			<path id="Layer" fill-rule="evenodd" class="s0" d="m15.7 15.6q0 3.5-3 5.9-3 2.3-9 2.3v11.1h-3.7v-27.1h5.4q4.6 0 7.5 2.2 2.8 2.1 2.8 5.6zm-3.9 0.1q0-1.9-1.5-3.3-1.5-1.4-6.6-1.4v9.5q4.1 0 6.1-1.2 2-1.1 2-3.6zm18.1 7.6l7.8 11.6h-4.2l-7.5-11.1h-0.9v11.1h-3.7v-27.1h5.9q4.4 0 7.1 2.2 2.8 2.2 2.8 5.6 0 2.7-1.8 4.8-1.8 2.1-5.5 2.9zm3.4-7.5q0-1.7-0.9-2.8-1-1.1-2.6-1.5-1.6-0.4-4.7-0.4v9.4q8.2 0.2 8.2-4.7zm33.7-4.6q4.3 4.2 4.3 10 0 6.1-4.3 10.4-4.3 4.2-10.6 4.2-6.2 0-10.5-4.3-4.4-4.2-4.4-10.3 0-5.9 4.4-10.1 4.4-4.2 10.6-4.2 6.1 0 10.5 4.3zm0.4 10.2q0-4.5-3.2-7.6-3.2-3.1-8-3.1-4.4 0-7.6 3.2-3.2 3.1-3.2 7.5 0 4.4 3.2 7.5 3.3 3 8.1 3 4.4 0 7.5-3.1 3.2-3.1 3.2-7.4zm25.9-0.2h11.5q0 2.8-0.3 4.4-0.4 1.7-1.6 3.7-1.2 2-3.1 3.6-1.9 1.6-4.2 2.2-2.2 0.7-5.3 0.7-7 0-11.1-4.4-4.2-4.4-4.2-10.1 0-6 4.3-10.2 4.2-4.2 10.3-4.2 3.6 0 6.6 1.1 3 1.1 6.1 4.1l-2.7 2.7q-4.2-4-9.6-4-4.8 0-7.9 3-3.2 3.1-3.2 7.7 0 4 3.1 7.2 3 3.2 8.4 3.2 8.1 0 10.2-7h-7.3c0 0 0-3.7 0-3.7zm33.2 13.7h-4.2l-7.5-11.1h-0.8v11.1h-3.7v-27.1h5.8q4.4 0 7.1 2.2 2.8 2.2 2.8 5.6 0 2.7-1.8 4.8-1.8 2.1-5.5 2.9zm-4.4-19.1q0-1.7-1-2.8-0.9-1.1-2.5-1.5-1.6-0.4-4.7-0.4v9.4q8.2 0.2 8.2-4.7z"/>
		</g>
	</g>
	<path id="Layer" fill-rule="evenodd" class="s1" d="m160.1 0l6.2 11.5-12.2-0.4z"/>
	<path id="Layer" class="s2" d="m181.7 39.9h-43.2l4.8-8.8 32.3-2.5z"/>
	<path id="Layer" class="s3" d="m175.6 28.7l-32.3 2.4 6-11.1 20.1-2.8z"/>
	<path id="Layer" class="s4" d="m169.4 17.3l-20.1 2.7 4.9-9.1 12.1 0.6z"/>
</svg>